<svg width="47" height="47" viewBox="0 0 47 47" fill="none" xmlns="http://www.w3.org/2000/svg">
<rect width="47" height="47" rx="23.5" fill="#F5F5F7"/>
<path d="M31.9105 16.1004C30.8916 15.084 29.5116 14.5124 28.0724 14.5107C26.6333 14.5089 25.2519 15.0771 24.2305 16.091L23.0043 17.23L21.7771 16.0872C20.7559 15.0689 19.372 14.498 17.9299 14.5C16.4878 14.502 15.1055 15.0768 14.0872 16.098C13.0689 17.1192 12.498 18.503 12.5 19.9452C12.502 21.3873 13.0768 22.7696 14.098 23.7879L22.4746 32.2872C22.5444 32.3581 22.6275 32.4144 22.7193 32.4528C22.811 32.4912 22.9095 32.511 23.009 32.511C23.1084 32.511 23.2069 32.4912 23.2986 32.4528C23.3904 32.4144 23.4735 32.3581 23.5433 32.2872L31.9105 23.7879C32.9295 22.7682 33.502 21.3857 33.502 19.9441C33.502 18.5026 32.9295 17.12 31.9105 16.1004ZM30.8465 22.7341L23.0043 30.6879L15.1574 22.7266C14.4189 21.9881 14.0041 20.9866 14.0041 19.9422C14.0041 18.8979 14.4189 17.8963 15.1574 17.1579C15.8959 16.4194 16.8974 16.0045 17.9418 16.0045C18.9861 16.0045 19.9877 16.4194 20.7261 17.1579L20.7449 17.1766L22.4933 18.8032C22.6321 18.9323 22.8147 19.0041 23.0043 19.0041C23.1939 19.0041 23.3764 18.9323 23.5152 18.8032L25.2636 17.1766L25.2824 17.1579C26.0213 16.4199 27.0232 16.0057 28.0675 16.0064C29.1119 16.0071 30.1132 16.4226 30.8511 17.1616C31.5891 17.9006 32.0033 18.9024 32.0026 19.9468C32.0019 20.9911 31.5863 21.9924 30.8474 22.7304L30.8465 22.7341Z" fill="black"/>
</svg>
