<svg width="47" height="47" viewBox="0 0 47 47" fill="none" xmlns="http://www.w3.org/2000/svg">
<rect width="47" height="47" rx="23.5" fill="#F5F5F7"/>
<path d="M33.7375 25.7383C33.6749 25.5635 33.6013 25.3929 33.5172 25.2274L29.6181 16.3567C29.5812 16.2713 29.5284 16.1937 29.4625 16.128C29.1839 15.8493 28.8532 15.6283 28.4891 15.4775C28.1251 15.3267 27.735 15.2491 27.3409 15.2491C26.9469 15.2491 26.5568 15.3267 26.1927 15.4775C25.8287 15.6283 25.498 15.8493 25.2194 16.128C25.0792 16.2683 25.0003 16.4584 25 16.6567V19.0005H22V16.6567C22.0001 16.5582 21.9807 16.4606 21.9431 16.3696C21.9055 16.2786 21.8503 16.1958 21.7806 16.1261C21.502 15.8475 21.1713 15.6264 20.8073 15.4756C20.4433 15.3248 20.0531 15.2472 19.6591 15.2472C19.265 15.2472 18.8749 15.3248 18.5109 15.4756C18.1468 15.6264 17.8161 15.8475 17.5375 16.1261C17.4716 16.1918 17.4188 16.2694 17.3819 16.3549L13.4828 25.2255C13.3987 25.391 13.3251 25.5617 13.2625 25.7364C13.0417 26.3542 12.9587 27.0127 13.0192 27.666C13.0797 28.3192 13.2823 28.9513 13.6128 29.518C13.9433 30.0846 14.3937 30.5722 14.9325 30.9465C15.4712 31.3208 16.0853 31.5728 16.7317 31.6848C17.3781 31.7968 18.0411 31.7661 18.6744 31.5949C19.3077 31.4237 19.8959 31.1161 20.3978 30.6937C20.8997 30.2712 21.3031 29.7442 21.5799 29.1494C21.8567 28.5546 22.0001 27.9065 22 27.2505V20.5005H25V27.2505C24.9997 27.9066 25.1428 28.5548 25.4194 29.1498C25.696 29.7447 26.0993 30.272 26.6011 30.6947C27.103 31.1173 27.6911 31.4251 28.3245 31.5965C28.9578 31.7679 29.6209 31.7987 30.2674 31.6868C30.9139 31.575 31.5281 31.3231 32.067 30.9488C32.6059 30.5745 33.0564 30.087 33.387 29.5202C33.7176 28.9535 33.9202 28.3214 33.9808 27.6681C34.0413 27.0148 33.9583 26.3561 33.7375 25.7383ZM18.6916 17.1021C18.9416 16.8915 19.2536 16.7684 19.58 16.7515C19.9065 16.7346 20.2295 16.8247 20.5 17.0083V23.8999C19.9144 23.3741 19.201 23.0114 18.4311 22.8482C17.6612 22.6849 16.862 22.7269 16.1134 22.9699L18.6916 17.1021ZM17.5 30.2505C16.9067 30.2505 16.3266 30.0745 15.8333 29.7449C15.3399 29.4153 14.9554 28.9467 14.7284 28.3985C14.5013 27.8504 14.4419 27.2472 14.5576 26.6652C14.6734 26.0833 14.9591 25.5487 15.3787 25.1292C15.7982 24.7096 16.3328 24.4239 16.9147 24.3081C17.4967 24.1924 18.0999 24.2518 18.6481 24.4789C19.1962 24.7059 19.6648 25.0904 19.9944 25.5838C20.3241 26.0771 20.5 26.6571 20.5 27.2505C20.5 28.0461 20.1839 28.8092 19.6213 29.3718C19.0587 29.9344 18.2957 30.2505 17.5 30.2505ZM26.5 17.0074C26.7705 16.8238 27.0935 16.7336 27.42 16.7506C27.7464 16.7675 28.0584 16.8906 28.3084 17.1011L30.8866 22.968C30.1379 22.7252 29.3386 22.6833 28.5688 22.8467C27.7989 23.0101 27.0855 23.373 26.5 23.8989V17.0074ZM29.5 30.2505C28.9067 30.2505 28.3266 30.0745 27.8333 29.7449C27.3399 29.4153 26.9554 28.9467 26.7284 28.3985C26.5013 27.8504 26.4419 27.2472 26.5576 26.6652C26.6734 26.0833 26.9591 25.5487 27.3787 25.1292C27.7982 24.7096 28.3328 24.4239 28.9147 24.3081C29.4967 24.1924 30.0999 24.2518 30.6481 24.4789C31.1962 24.7059 31.6648 25.0904 31.9944 25.5838C32.3241 26.0771 32.5 26.6571 32.5 27.2505C32.5 28.0461 32.1839 28.8092 31.6213 29.3718C31.0587 29.9344 30.2956 30.2505 29.5 30.2505Z" fill="black"/>
</svg>
