<svg width="47" height="47" viewBox="0 0 47 47" fill="none" xmlns="http://www.w3.org/2000/svg">
<rect width="47" height="47" rx="23.5" fill="#F5F5F7"/>
<path d="M21.25 31.75C21.25 32.0467 21.162 32.3367 20.9972 32.5834C20.8324 32.83 20.5981 33.0223 20.324 33.1358C20.0499 33.2494 19.7483 33.2791 19.4574 33.2212C19.1664 33.1633 18.8991 33.0204 18.6893 32.8107C18.4796 32.6009 18.3367 32.3336 18.2788 32.0426C18.2209 31.7517 18.2506 31.4501 18.3642 31.176C18.4777 30.9019 18.67 30.6676 18.9166 30.5028C19.1633 30.338 19.4533 30.25 19.75 30.25C20.1478 30.25 20.5294 30.408 20.8107 30.6893C21.092 30.9706 21.25 31.3522 21.25 31.75ZM29.5 30.25C29.2033 30.25 28.9133 30.338 28.6666 30.5028C28.42 30.6676 28.2277 30.9019 28.1142 31.176C28.0006 31.4501 27.9709 31.7517 28.0288 32.0426C28.0867 32.3336 28.2296 32.6009 28.4393 32.8107C28.6491 33.0204 28.9164 33.1633 29.2074 33.2212C29.4983 33.2791 29.7999 33.2494 30.074 33.1358C30.3481 33.0223 30.5824 32.83 30.7472 32.5834C30.912 32.3367 31 32.0467 31 31.75C31 31.3522 30.842 30.9706 30.5607 30.6893C30.2794 30.408 29.8978 30.25 29.5 30.25ZM33.9728 18.4506L31.5691 27.1019C31.4369 27.5745 31.1542 27.9911 30.7639 28.2885C30.3736 28.5859 29.897 28.7479 29.4062 28.75H20.14C19.6478 28.7498 19.1693 28.5886 18.7772 28.291C18.3852 27.9935 18.1013 27.5758 17.9688 27.1019L14.68 15.25H13C12.8011 15.25 12.6103 15.171 12.4697 15.0303C12.329 14.8897 12.25 14.6989 12.25 14.5C12.25 14.3011 12.329 14.1103 12.4697 13.9697C12.6103 13.829 12.8011 13.75 13 13.75H15.25C15.414 13.75 15.5734 13.8037 15.704 13.9029C15.8345 14.0021 15.929 14.1414 15.9728 14.2994L16.8616 17.5H33.25C33.3656 17.5 33.4797 17.5267 33.5833 17.578C33.6869 17.6294 33.7772 17.704 33.8472 17.7961C33.9171 17.8881 33.9649 17.9951 33.9867 18.1086C34.0085 18.2222 34.0037 18.3392 33.9728 18.4506ZM32.2628 19H17.2787L19.4172 26.7006C19.461 26.8586 19.5555 26.9979 19.686 27.0971C19.8166 27.1963 19.976 27.25 20.14 27.25H29.4062C29.5702 27.25 29.7297 27.1963 29.8602 27.0971C29.9908 26.9979 30.0852 26.8586 30.1291 26.7006L32.2628 19Z" fill="black"/>
</svg>
