<svg width="250" height="40" viewBox="0 0 250 40" fill="none" xmlns="http://www.w3.org/2000/svg">
<path fill-rule="evenodd" clip-rule="evenodd" d="M217.673 28.0534V17.4978H211.861V29.1756C211.861 33.1267 215.951 36.3334 220.998 36.3334C226.046 36.3334 230.134 33.1267 230.134 29.1756V17.4978H224.366V28.0534C224.366 29.8089 222.866 31.2356 221.021 31.2356C219.176 31.2356 217.677 29.81 217.677 28.0534H217.673Z" fill="white"/>
<path d="M249.098 4.95117H243.243V35.6756H249.098V4.95117ZM239.205 4.95117H233.35V35.6756H239.205V4.95117Z" fill="white"/>
<path fill-rule="evenodd" clip-rule="evenodd" d="M126.253 11.3978H123.071V35.6755H116.843V6.36108H127.549C132.423 6.36108 136.371 10.2366 136.371 15.0177C136.371 19.0889 133.507 22.5022 129.651 23.4289L138.254 35.6755H130.912L124.689 26.0777V19.0666H126.134C128.433 19.0666 130.298 17.3477 130.298 15.23C130.298 13.1111 128.552 11.3933 126.25 11.3933L126.253 11.3978Z" fill="white"/>
<path d="M156.651 27.7801C156.69 27.3801 156.709 26.969 156.704 26.5501C156.793 20.2156 152.6 16.7367 147.257 16.7367C141.913 16.7367 137.581 21.1223 137.581 26.5312C137.581 31.9389 141.913 36.3334 147.257 36.3334C151.334 36.3334 154.518 34.4878 156.156 31.5967L151.404 29.4056C150.797 30.7134 149.382 31.6356 147.737 31.6312C145.458 31.6278 143.774 29.9556 143.754 27.9834V27.7834H156.648L156.651 27.7801ZM143.736 24.4134C143.752 23.4762 144.136 22.5829 144.805 21.9259C145.473 21.269 146.373 20.9009 147.311 20.9009C148.248 20.9009 149.148 21.269 149.816 21.9259C150.485 22.5829 150.869 23.4762 150.886 24.4134H143.731H143.736ZM179.952 35.6756L179.944 4.95117H174.11V19.489C172.557 17.9512 170.489 17.0212 168.229 17.0212C163.393 17.0212 159.476 21.3067 159.476 26.5956C159.476 31.8845 163.393 36.1712 168.229 36.1712C170.512 36.1712 172.58 35.1989 174.137 33.6301V35.6745H179.952V35.6756ZM169.889 31.1867C167.518 31.1867 165.591 29.0789 165.591 26.4845C165.591 23.8901 167.513 21.7845 169.889 21.7845C172.264 21.7845 174.187 23.8901 174.187 26.4845C174.187 29.0789 172.264 31.1856 169.889 31.1856V31.1867ZM204.697 19.7189C206.3 18.2234 207.28 16.2212 207.28 14.0223C207.28 12.0312 206.511 10.1978 205.17 8.76006C203.774 7.22228 201.303 6.36117 197.962 6.36117H187.957V35.6756H200.88C205.831 35.5945 209.821 31.8545 209.821 27.2689C209.821 23.9323 208.644 21.5523 204.701 19.7189H204.697ZM199.797 30.5856H194.195V11.3967H198.101C199.816 11.3967 201.207 12.9656 201.207 14.6834C201.207 15.0914 201.127 15.4954 200.971 15.8724C200.815 16.2493 200.586 16.5919 200.298 16.8804C200.009 17.1689 199.667 17.3978 199.29 17.5539C198.913 17.7099 198.509 17.7902 198.101 17.7901H196.068V23.0601H199.797C201.875 23.0601 203.448 24.7356 203.448 26.8156C203.374 28.9634 202.057 30.4478 199.797 30.5856Z" fill="white"/>
<path d="M52.5188 40C63.5632 40 72.5188 31.0456 72.5188 20C72.5188 8.95444 63.5632 0 52.5188 0C41.4732 0 32.5188 8.95444 32.5188 20C32.5188 31.0456 41.4732 40 52.5188 40Z" fill="white" fill-opacity="0.3"/>
<path d="M51.0922 29.2789C49.9622 28.6411 49.7389 27.3844 49.1478 26.6155C48.9056 26.3111 48.5056 25.9733 48.3978 25.6966C47.3789 23.09 47.0333 21.6255 46.6756 19.0811C46.4911 17.7778 45.6267 16.6789 44.3656 15.1366C43.8156 14.4644 43.0322 13.3533 42.3544 12.6967C40.08 10.7789 38.85 9.71332 37.3322 8.69109C37.0357 8.48995 36.7214 8.31627 36.3933 8.17221H36.3856C36.3797 8.17127 36.3743 8.16856 36.37 8.16443C35.8633 7.94221 35.4056 7.87998 34.7822 7.84554C34.6993 7.84073 34.6163 7.83813 34.5333 7.83776C33.4022 7.83776 32.3267 8.24887 31.2422 9.08665C30.4544 9.60221 29.5511 9.88998 28.6756 10.1666C27.5711 10.5166 26.4256 10.8822 25.4922 11.6967C25.3256 11.8166 25.1733 11.9855 25.0233 12.1433C24.8189 12.3622 24.6733 12.6122 24.3622 12.7122C24.0922 12.7733 23.9 12.7733 23.6811 12.7922C23.3361 12.8195 22.9932 12.8685 22.6544 12.9389C21.5056 13.2111 20.6256 13.9189 19.6989 14.6689C19.5956 14.7533 19.4878 14.8378 19.3833 14.9222C18.7833 15.3989 17.75 15.8333 17.1656 15.8522C15.5322 15.9022 14.3756 16.2866 13.1722 17.1822C11.93 18.1322 10.6 19.1122 9.12778 19.7155C8.78962 19.8468 8.43049 19.9157 8.06778 19.9189C7.68333 19.9189 7.13333 19.8344 6.69556 19.4278C6.13778 18.9122 5.95333 17.92 6.28778 17.2555C6.78778 16.2711 7.80556 15.4678 8.63667 14.8755C9.70889 14.0644 10.7467 13 10.2856 11.2355C9.78889 9.62109 7.81778 9.10221 6.51444 8.75665C6.14556 8.65998 5.82555 8.57554 5.63778 8.48776C5.22667 8.29554 4.93778 8.09887 4.65778 7.90998C4.38574 7.71294 4.09332 7.54568 3.78556 7.41109C3.73359 7.39178 3.67876 7.38127 3.62333 7.37998C3.43889 7.37998 3.29333 7.46887 3.18222 7.64554C2.71222 8.46443 2.57444 9.29887 2.77111 10.1133C3.07444 11.4511 4.39333 12.6689 5.76889 12.8844C5.90667 12.9189 6.06444 12.9311 6.21889 12.9467C6.36111 12.9578 6.50667 12.9733 6.64111 13C5.72851 13.7052 4.89579 14.5081 4.15778 15.3944C3.15111 16.5789 2.87444 18.5355 3.51556 19.9422C4.07 21.3489 5.47667 22.4944 6.93778 22.7255C7.22555 22.7789 7.53778 22.8055 7.89 22.8055C8.39778 22.8055 8.90889 22.7522 9.39778 22.6989C9.51667 22.6878 9.64 22.6711 9.75444 22.66C9.80444 23.7744 9.84333 24.4666 10.4622 26.0466C10.5 26.1466 10.4733 26.3155 10.3433 26.4311C10.2356 26.5266 9.33555 26.9 9.07778 26.9533C8.96876 26.9715 8.85827 26.9793 8.74778 26.9766H8.37889C8.25667 26.9766 8.09778 26.9766 7.94444 26.9989C7.37889 27.08 7.09889 27.5566 6.89889 28.0189C6.77667 28.2989 6.68778 28.5455 6.61 28.7566C6.41778 29.2833 6.29889 29.61 5.93 29.81C5.93 29.81 5.16111 29.1255 5.03 29.0322C4.85223 28.9271 4.64986 28.8707 4.44333 28.8689C3.95889 28.8689 3.52889 29.1766 3.11333 29.4722C2.98754 29.5662 2.85779 29.6548 2.72444 29.7378C2.37556 29.9566 2.11333 30.33 2.03778 30.7178C1.47222 31.0022 0.918889 31.3444 0.661111 31.91C0.538889 32.1522 0.515556 32.4478 0.492222 32.7322C0.48323 32.8673 0.467656 33.0019 0.445556 33.1355C0.401704 33.226 0.351581 33.3132 0.295556 33.3966C0.138889 33.6122 0 33.9311 0 34.1278C0 34.5422 0.153333 34.7 0.384444 34.8966C0.665556 35.0966 1.43 35.33 1.97556 35.4655C2.01543 35.4761 2.05653 35.4813 2.09778 35.4811C2.26444 35.4811 2.39778 35.3955 2.52556 35.3144C2.58667 35.2766 2.64778 35.2344 2.71778 35.2033C3.16778 35.3111 3.83222 35.45 4.47778 35.45C4.81222 35.45 5.11667 35.4111 5.38889 35.3389C6.04667 35.1611 6.60778 34.27 6.91111 33.7889C6.98444 33.6733 7.05778 33.5589 7.07667 33.5433C7.09593 33.535 7.11683 33.5312 7.13778 33.5322C7.23778 33.5322 7.4 33.5778 7.57222 33.6278C7.77222 33.6855 8.00333 33.75 8.21111 33.77C8.95222 33.8355 9.66 33.3744 10.1178 33.0322C10.3056 32.8933 10.5089 32.6978 10.7089 32.51C10.9311 32.2978 11.1589 32.0789 11.3556 31.9478C11.6152 31.8426 11.8932 31.7905 12.1733 31.7944C12.2733 31.7944 12.3844 31.7978 12.5044 31.81C13.0378 31.9211 13.7378 32.0522 14.4189 32.0522C15.0989 32.0522 15.6144 31.9366 16.0633 31.7022L16.4789 31.4866C16.9289 31.2566 17.39 31.0222 17.8278 30.7833C18.6733 30.3255 19.0122 29.5722 19.2889 28.9689L19.3578 28.8155C19.52 28.4655 19.7656 27.8311 19.8311 27.6733C19.9611 27.6922 20.0967 27.7 20.2389 27.7C20.6956 27.7 21.1456 27.6044 21.58 27.5111C22.0067 27.42 22.4522 27.3278 22.8978 27.3278C23.1333 27.3278 23.3478 27.35 23.5633 27.4044C24.3633 27.5622 25.4167 27.7433 26.4889 27.7433C27.0444 27.7484 27.5987 27.6903 28.1411 27.57C28.2644 27.6889 28.4033 27.7922 28.5378 27.8922C28.6711 27.9922 28.7944 28.0844 28.91 28.1966C28.7867 28.219 28.6625 28.2356 28.5378 28.2467C28.1644 28.2889 27.7767 28.3311 27.4922 28.6355C27.1851 28.5098 26.8551 28.4492 26.5233 28.4578C26.1471 28.4665 25.7721 28.5025 25.4011 28.5655C25.2511 28.5878 25.1044 28.6078 24.9622 28.6266C24.39 28.6955 23.9978 28.9155 23.7944 29.2878C23.6711 29.53 23.5789 29.7844 23.7789 30.1989L24.9044 32.0666C25.0433 32.3089 25.2733 32.5055 25.4311 32.5166C25.5156 32.5244 25.6278 32.5166 25.75 32.5055C25.8467 32.4978 25.9467 32.49 26.0422 32.49C26.2233 32.49 26.3311 32.5211 26.37 32.5822C26.4267 32.6711 26.4811 32.7555 26.5344 32.8433C26.7656 33.2055 27.0033 33.5822 27.3644 33.9011C27.9111 34.3778 28.7911 34.5766 29.6178 34.3855C29.9289 34.27 30.24 34.1578 30.5511 34.0466C31.5244 33.6966 32.5311 33.3355 33.5067 32.9211L35.1256 32.69C35.66 32.5855 36.0678 31.8633 36.2022 31.5633L36.2367 31.4944C36.2367 31.4944 36.7256 30.5255 36.8744 29.9378C36.8822 30.0378 36.8822 30.1711 36.8822 30.3566C36.8822 31.2711 37.0444 32.4289 38.6044 32.3678C39.4733 32.3322 40.6267 31.8178 41.4489 31.6678C42.31 31.5211 43.4322 31.8866 44.2667 31.4789C45.0778 31.1489 45.5433 30.5178 45.6733 30.6489C46.2113 31.1743 46.8505 31.5847 47.5521 31.8552C48.2537 32.1256 49.003 32.2505 49.7544 32.2222C50.92 32.1844 51.0467 31.25 50.2322 30.8266C51.8222 31.0111 52.2922 30.1511 51.9956 29.8733C51.8067 29.6966 51.6956 29.6089 51.0922 29.27V29.2789ZM36.8044 28.41C36.2044 27.5989 35.8133 27.0233 35.7556 26.2811C36.52 26.1922 37.22 25.9389 38.3578 25.8778C38.0611 26.7578 37.0433 27.1766 36.8011 28.4066L36.8044 28.41ZM104.417 33.5733C104.362 33.4655 104.309 33.3622 104.278 33.2844C104.228 33.1122 104.22 32.9311 104.209 32.7389C104.198 32.5278 104.187 32.3078 104.12 32.1011C103.94 31.5011 103.298 31.1278 102.779 30.9166C102.76 30.69 102.718 30.4444 102.507 30.2944C101.61 29.6555 101.141 29.2944 100.888 29.1022C100.738 28.9866 100.684 28.9444 100.653 28.9333C100.547 28.8838 100.432 28.8573 100.314 28.8555C99.9189 28.8555 99.6033 29.1711 99.2967 29.4711L99.0855 29.6789C99.0778 29.6866 99.0744 29.6866 99.0622 29.6866C98.9655 29.6866 98.7655 29.3911 98.7156 29.2566C98.6267 29.0178 98.5589 28.7911 98.4889 28.5722C98.3741 28.1645 98.2262 27.7669 98.0467 27.3833C97.7089 26.7111 96.9867 26.7 96.3478 26.6889H96.1678C95.8755 26.6889 95.49 26.6467 95.4211 26.4533C95.3522 26.2622 95.4944 25.9 95.5833 25.6355C95.6444 25.4511 95.7022 25.2778 95.7211 25.1089C95.8833 24.3866 95.8944 23.4244 95.7522 22.6444C95.9133 22.6489 96.0744 22.6666 96.2444 22.6866C96.39 22.7066 96.54 22.7211 96.6978 22.7289H96.8367C97.7978 22.7289 98.6089 22.54 99.3156 22.1566C100.741 21.2989 101.614 19.9155 101.649 18.4433C101.599 17.6744 101.418 17.04 101.027 16.2555C100.5 15.2178 99.6233 14.1955 98.3433 13.1344C99.0844 12.9811 99.7 12.8011 100.269 12.4422C101.43 11.7044 101.944 10.3666 101.718 8.67221C101.657 8.27221 101.502 7.57998 101.164 7.39998C101.116 7.37403 101.062 7.36066 101.007 7.36109C100.761 7.36109 100.522 7.62665 100.311 7.86109C100.233 7.94998 100.158 8.02998 100.092 8.08776C99.6967 8.44109 99.2311 8.53332 98.7433 8.62998C98.4855 8.67998 98.2211 8.73332 97.97 8.82554C96.8011 9.20665 94.8144 10.0744 94.6367 11.6544C94.4644 13.2155 95.5755 14.2655 96.6522 15.28C97.0089 15.6178 97.3522 15.9366 97.6433 16.2755C98.2655 16.9944 98.7967 17.7089 98.6578 18.5167C98.6089 18.7933 98.2167 19.2167 97.8433 19.3855C97.5589 19.4855 97.2633 19.5344 96.9633 19.5344C95.9678 19.5344 95.01 18.99 94.1689 18.5044L94.0489 18.4355C92.0967 17.0822 90.0789 15.68 87.5767 15.4133C86.6233 15.23 85.7967 14.6533 84.9933 14.0911C84.8089 13.9611 84.623 13.8333 84.4355 13.7078C83.5938 13.2136 82.6665 12.8823 81.7022 12.7311C81.2022 12.6655 80.8067 12.3389 80.3878 11.9978C80.171 11.8097 79.9399 11.6388 79.6967 11.4866C78.7155 10.853 77.6215 10.4143 76.4744 10.1944C76.3611 10.1605 76.2462 10.1323 76.13 10.11C75.83 10.0478 75.5178 9.97887 75.3022 9.75221C74.9722 9.36332 74.5178 8.86332 73.9689 8.47221C73.2344 7.97998 72.0933 7.45665 71.0978 7.45665C70.8965 7.45423 70.6958 7.47889 70.5011 7.52998C69.9478 7.66887 69.5178 7.99109 69.0633 8.33332L68.8911 8.45998C67.98 9.17109 66.7689 10.1489 65.8156 10.8289C62.9711 12.8544 61.9022 13.7422 60.4922 15.2844C56.8633 19.2466 57.9667 25.1778 54.83 28.6144C54.0189 29.5055 53.7922 29.6211 53.4967 29.8678C53.13 30.1744 53.0456 31.8089 55.4211 31.0089C54.3378 31.9355 55.0211 32.3655 55.7322 32.3811C56.9867 32.4078 58.37 31.9733 59.7267 30.5289C60.6689 31.8844 62.31 31.2589 63.1633 31.3289C63.9633 31.3933 65.4356 32.2622 66.2922 32.2122C67.5989 32.1311 68.08 30.8244 67.9489 30.0978C68.16 30.0978 68.2178 30.0478 68.2756 29.9444C68.43 30.7011 68.5333 31.22 68.68 31.6C68.6911 31.6278 68.71 31.6622 68.7289 31.7V31.7089C68.8222 31.8733 69.0144 32.2389 69.2067 32.4155C69.4289 32.6844 69.7633 32.72 70.0289 32.72C70.1367 32.72 70.2444 32.7122 70.3478 32.7089C70.4667 32.7 70.5822 32.6966 70.6933 32.6966C70.7926 32.7704 70.8876 32.8498 70.9778 32.9344C71.1889 33.1189 71.4044 33.3122 71.67 33.3844C72.9078 33.7033 73.9344 33.9878 74.93 34.3378C75.1333 34.4033 75.4444 34.4878 75.7556 34.4878C75.8556 34.4878 75.9556 34.48 76.0478 34.4611C76.9944 34.2566 77.8367 33.4466 78.0433 32.5278C78.0589 32.3855 78.1622 32.3733 78.3389 32.3655C78.4667 32.3622 78.6122 32.3544 78.6933 32.2622C79.2078 31.8511 79.5233 31.2855 79.8311 30.7433C79.8956 30.6289 79.9611 30.51 80.0311 30.3944C80.1108 30.2576 80.1558 30.1034 80.1624 29.9452C80.169 29.787 80.1369 29.6296 80.0689 29.4866C79.9689 29.2866 79.7889 29.1411 79.5267 29.0533C79.0344 28.9144 78.4855 28.9022 78.0122 28.9022H77.49C77.2433 28.9022 76.9589 28.9022 76.6822 28.8755L76.4822 28.6566C76.3367 28.5255 76.1522 28.4955 75.9711 28.4644L75.8411 28.4422L76.29 28.0911C76.4711 28.0955 76.6478 28.0989 76.8244 28.0989C77.87 28.0989 78.8311 28.0066 79.6889 27.8266C80.4519 27.6431 81.2331 27.5462 82.0178 27.5378C82.1222 27.5378 82.2289 27.5378 82.3367 27.5455C82.4633 27.5533 82.5944 27.5611 82.7211 27.5722C83.19 27.6033 83.6711 27.6389 84.1511 27.6389C84.7856 27.6389 85.3011 27.58 85.7622 27.4578C85.82 27.6878 85.8656 27.9144 85.9078 28.1378C86.0767 28.9755 86.2344 29.7678 86.88 30.4555C87.2689 30.9511 87.7756 31.2355 88.2689 31.5166C88.5222 31.6589 88.78 31.82 89.0289 31.9855C89.36 32.1544 89.6255 32.1811 90.0055 32.1811C90.5355 32.1811 91.2122 31.9544 91.5967 31.9544C93.2 31.9544 94.4378 32.8233 95.7789 33.8722C96.0178 34.03 96.31 34.1111 96.6444 34.1111C97.0511 34.1111 97.5089 33.9889 97.9089 33.7722L97.94 33.8189C98.1844 34.1644 98.4433 34.5266 98.7889 34.8078C99.2844 35.2566 99.9267 35.3189 100.489 35.3189C100.677 35.3189 100.872 35.31 101.061 35.3022C101.33 35.2911 101.602 35.28 101.864 35.2911C101.968 35.4366 102.168 35.5489 102.326 35.5411C102.483 35.5333 104.217 34.9678 104.309 34.9378C104.401 34.9066 104.531 34.83 104.531 34.83C104.951 34.6144 104.647 34.0078 104.424 33.5611L104.417 33.5733ZM68.5211 28.4667C68.1022 27.6333 67.7744 26.8833 67.2555 26.1C68.4444 26.38 69.8 26.2444 69.8 26.2444C69.4167 26.7911 68.9778 27.5711 68.5211 28.4667Z" fill="black" fill-opacity="0.2"/>
<path d="M75.9134 29.2912C75.8512 29.2134 75.7289 29.2023 75.6589 29.2023C75.6289 29.2023 75.6012 29.2023 75.57 29.2067C75.3556 29.2334 75.1589 29.2445 74.9556 29.2445C74.8507 29.2441 74.7459 29.2415 74.6412 29.2367C74.5556 29.2367 74.4789 29.2289 74.4023 29.2289C74.2756 29.2289 74.1723 29.2367 74.0689 29.2567H74.0445L74.0334 29.2789C74.0178 29.31 73.6223 30.0012 73.6756 30.44C73.7334 30.9134 74.2134 31.0089 74.5789 31.0823C74.71 31.1089 74.86 31.1356 75.0134 31.1356C75.2745 31.1356 75.4478 31.0467 75.5356 30.8745C75.7272 30.4074 75.8641 29.9197 75.9434 29.4212C75.95 29.3975 75.9507 29.3726 75.9454 29.3486C75.9402 29.3245 75.9292 29.3022 75.9134 29.2834V29.2912ZM102.028 30.8512C101.801 30.5245 101.406 30.2623 101.09 30.0512C100.964 29.973 100.843 29.8873 100.728 29.7945L100.663 29.7478C100.592 29.6862 100.5 29.6523 100.406 29.6523C100.048 29.6523 99.66 30.0823 99.6523 30.2278C99.6412 30.4434 99.9478 30.8278 100.348 31.3056L100.432 31.4089C100.636 31.65 100.854 31.7812 101.086 31.7967C101.32 31.7967 101.504 31.7189 101.701 31.5356C101.847 31.4012 102.17 31.0623 102.023 30.8545L102.028 30.8512ZM103.701 33.6345C103.645 33.5263 103.599 33.4132 103.563 33.2967C103.529 33.134 103.503 32.9697 103.486 32.8045C103.452 32.5423 103.421 32.2934 103.34 32.1012C103.283 31.9822 103.193 31.8815 103.082 31.8101C102.971 31.7388 102.842 31.6995 102.71 31.6967C102.619 31.6957 102.529 31.717 102.448 31.7589C102.057 31.9545 101.821 32.1667 101.887 32.6078C102.102 33.25 102.209 33.7156 102.352 34.3489C102.368 34.4456 102.433 34.7645 102.586 34.7645C102.598 34.7645 102.61 34.7645 102.621 34.7612L103.748 34.3923C103.774 34.3844 103.798 34.371 103.819 34.353C103.839 34.335 103.856 34.3128 103.867 34.2878C103.932 34.1378 103.813 33.8845 103.698 33.6378L103.701 33.6345Z" fill="white"/>
<path d="M101.71 34.5333C101.621 33.8412 101.429 33.1663 101.14 32.5311L101.125 32.5011H101.091C100.437 32.5422 100.033 32.0122 99.641 31.5044C99.511 31.3355 99.391 31.1778 99.261 31.04C99.0668 30.8228 98.8574 30.6196 98.6343 30.4322C98.4032 30.2322 98.2077 30.0555 98.131 29.8989C98.0388 29.7055 97.9388 29.3367 97.8421 28.9789C97.7732 28.7255 97.7088 28.4833 97.6466 28.3178C97.6355 28.2844 97.6199 28.2489 97.6077 28.2144C97.4888 27.8989 97.3466 27.5067 96.9388 27.4422C96.7355 27.4078 96.5121 27.4 96.301 27.3922C95.7121 27.3689 95.121 27.2655 94.8177 26.8422C94.5366 26.4533 94.651 26.0922 94.8099 25.7089C94.8788 25.5389 94.9288 25.3978 94.9677 25.2355C95.1788 24.5244 95.2521 23.64 95.0899 23.0211C95.0632 22.9214 95.0325 22.8227 94.9977 22.7255C94.9132 22.4678 94.8132 22.0755 94.8755 21.9567C94.9399 21.8378 95.0054 21.8178 95.1243 21.8178C95.2288 21.8178 95.3477 21.8533 95.4588 21.8844C95.5399 21.9067 95.601 21.9178 95.6788 21.9378C95.9699 22.0067 96.4088 22.0867 96.8088 22.0867C97.4699 22.0867 98.1643 21.9444 98.7643 21.6867C99.8988 21.1378 101.018 19.8967 100.96 18.3589C100.81 16.8022 99.8488 15.2989 98.0154 13.7578C97.9732 13.7189 97.9232 13.68 97.8766 13.6422C97.6388 13.4455 97.3499 13.1967 97.3432 12.9767C97.3354 12.7578 97.9077 12.6233 98.2654 12.5389C98.3499 12.52 98.4232 12.5044 98.4877 12.4855L98.5799 12.4622C99.0377 12.3433 99.5066 12.22 99.8954 11.9511C101.202 11.07 101.155 9.5211 101.007 8.66777C100.999 8.64554 100.994 8.61777 100.987 8.58777C100.964 8.47665 100.933 8.33777 100.829 8.33777C100.791 8.34076 100.756 8.35689 100.729 8.38332C100.691 8.41777 100.652 8.45665 100.61 8.49443C100.46 8.63776 100.294 8.79888 100.102 8.90554C99.6877 9.15221 99.1877 9.25665 98.7077 9.35665C98.3999 9.4211 98.081 9.48665 97.7855 9.58999C96.4855 10.04 95.6788 10.6978 95.3899 11.5467C95.2399 11.9889 95.321 12.5467 95.6088 13.0844C96.0355 13.7578 96.6466 14.3455 97.2421 14.9144C98.181 15.8144 99.1488 16.74 99.3721 18.0011C99.4943 18.7344 99.1954 19.3544 98.461 19.8889C98.0766 20.1189 97.5843 20.2422 97.0388 20.2422C96.3471 20.2371 95.6669 20.0656 95.0555 19.7422C94.2943 19.3622 93.5599 18.87 92.8488 18.3933C91.7799 17.6789 90.6732 16.94 89.4477 16.5489C88.9166 16.3055 88.3255 16.1867 87.7555 16.0711C86.9443 15.9067 86.1066 15.7378 85.4332 15.21C85.202 15.0577 84.9752 14.8988 84.7532 14.7333C84.1421 14.2922 83.5121 13.8333 82.7977 13.6533C82.531 13.5611 82.271 13.5267 82.0166 13.4889C81.6243 13.4311 81.2599 13.3811 80.921 13.1389L80.4599 12.8044C79.891 12.3889 79.3032 11.9589 78.7154 11.6622C77.7043 11.1589 76.6277 10.8978 75.4243 10.6367C75.0399 10.5444 74.8021 10.2555 74.5477 9.94776C74.3788 9.7411 74.2021 9.52888 73.9788 9.37888C73.0532 8.64554 72.211 8.15332 71.1266 8.15332C71.0266 8.15332 70.9232 8.15665 70.8232 8.16443C70.2543 8.20332 69.701 8.63332 69.3321 8.95665C68.2521 9.9011 67.0877 10.7433 65.9655 11.5589C64.2877 12.77 62.5588 14.0222 61.0788 15.6411C59.6221 17.1444 59.0955 19.0189 58.5799 20.8378C58.5032 21.1067 58.431 21.3722 58.3499 21.6411C58.211 22.1378 58.0843 22.6489 57.961 23.1411C57.2932 25.8189 56.6054 28.4955 53.9288 30.2322C53.7521 30.3478 53.8143 30.5711 53.9788 30.6322C54.0488 30.6589 55.171 31.0355 56.2899 29.9133C56.9655 29.0755 57.3421 28.3022 58.1499 27.4378C58.1766 27.4111 58.2688 27.3378 58.3455 27.3455C58.3999 27.3722 58.4155 27.4 58.3999 27.4955C58.2955 27.8422 58.0843 28.1455 57.8777 28.4411C57.6666 28.7444 57.4499 29.0567 57.3421 29.4133C57.0855 30.1822 56.3699 30.8055 55.7355 31.3511C55.7355 31.3511 55.6355 31.4167 55.5788 31.49C55.521 31.5622 55.521 31.5933 55.521 31.5933C55.501 31.7622 55.6355 31.8667 55.9088 31.8778C57.4088 31.8778 58.4766 30.8133 59.5066 29.7789C59.5292 29.7563 59.5563 29.7388 59.5862 29.7275C59.6161 29.7162 59.648 29.7113 59.6799 29.7133C59.7363 29.7116 59.7925 29.7207 59.8455 29.74C59.9143 29.7789 60.0721 29.9333 60.1943 30.04C60.5332 30.34 60.8788 30.6511 61.3321 30.7433H61.3477C61.8943 30.6667 62.3855 30.6055 62.8932 30.6055C63.0399 30.6055 63.1777 30.6089 63.301 30.6211C63.8466 30.7855 64.3966 30.9933 64.9232 31.19C65.2954 31.3322 65.6799 31.4744 66.0677 31.6044H66.0843C66.5843 31.5855 66.9399 31.1211 67.2021 30.7089C67.3243 30.4167 67.2677 30.1322 67.2099 29.8555C67.1755 29.6833 67.141 29.5222 67.1521 29.3633C67.2443 29.3178 67.371 29.3255 67.5066 29.3444C67.6255 29.3633 67.7977 29.3444 67.8555 29.3367C67.9866 29.3178 68.1243 29.1678 68.0866 28.9722C67.9866 28.4722 67.7366 28.1644 67.4866 27.78C67.2677 27.4533 67.0599 27.1467 66.9566 26.8C66.791 26.3422 66.441 25.9622 66.1032 25.5933C65.711 25.1667 65.3421 24.7622 65.2299 24.2511C65.2299 24.2511 65.1966 24.1433 65.2343 24.1011C65.2721 24.0589 65.3766 24.1089 65.3766 24.1089C65.5566 24.24 65.7377 24.3867 65.9099 24.5278C66.4799 24.99 67.0677 25.47 67.7832 25.5778C68.4477 25.6433 69.1777 25.7278 69.8888 25.6667C70.0777 25.6355 70.1732 25.47 70.1277 25.3122C69.8432 24.7122 69.551 24.0678 69.3743 23.3633C69.2243 22.8333 68.8899 21.4378 69.2321 20.3844C69.2666 20.2811 69.3354 20.2455 69.3977 20.2455C69.4043 20.2455 69.4121 20.2455 69.4243 20.25C69.5399 20.2767 69.6166 20.4155 69.6321 20.5222L69.6432 20.6611C69.7432 22.0944 69.8388 23.4478 70.7155 24.6011C70.9499 24.9744 71.2843 25.17 71.6077 25.3622C71.8299 25.4933 72.0877 25.6122 72.2499 25.82C72.4343 26.0533 72.4643 26.4533 72.3388 26.6955L71.261 28.2844C71.0077 28.6455 70.761 29.0333 70.6732 29.4289C70.5932 29.8289 70.6277 30.2178 70.6621 30.5944L70.6699 30.6855C70.6356 30.6639 70.6076 30.6337 70.5888 30.5978C70.1554 29.8133 70.0666 29.1489 70.2888 28.6378C70.431 28.3067 71.3077 27.0655 71.561 26.6578C71.6421 26.5267 71.7077 26.3967 71.6388 26.3078C71.5532 26.1967 70.8966 25.9155 70.7232 25.9155C70.7121 25.9155 70.701 25.9155 70.6888 25.92C70.5355 25.9622 70.4355 26.1044 70.3466 26.2311C70.3266 26.2595 70.3062 26.2877 70.2855 26.3155L68.9588 28.7222L68.9277 28.8111C68.851 29.0522 68.7832 29.26 68.851 29.5367C68.9243 29.8978 69.0355 30.2867 69.1199 30.57L69.1899 30.8055C69.3088 31.2244 69.4199 31.6167 69.6043 31.8355C69.6597 31.9023 69.73 31.9552 69.8095 31.9899C69.889 32.0246 69.9755 32.0403 70.0621 32.0355C70.1621 32.0355 70.2655 32.02 70.3655 32.0044C70.5321 31.9778 70.7121 31.9589 70.8466 31.9933C71.0466 32.0433 71.1843 32.1933 71.331 32.3467C71.4766 32.5044 71.6266 32.6655 71.8499 32.7311C72.261 32.87 72.691 32.9811 73.1066 33.0889C73.6599 33.2344 74.2332 33.3844 74.7788 33.5955C75.0866 33.6955 75.4166 33.7878 75.7355 33.7878C76.0899 33.7878 76.3088 33.6878 76.6166 33.4389C77.0466 33.0889 77.1888 32.7422 77.2966 32.2433C77.381 31.7855 77.5343 31.7544 77.8654 31.7355C78.0266 31.7278 78.0499 31.7355 78.2077 31.6822C78.3732 31.6278 78.8532 31.04 79.1032 30.56C79.1721 30.4289 79.2455 30.3089 79.3143 30.2055C79.3806 30.1181 79.4172 30.0119 79.4188 29.9022C79.4188 29.6633 79.2188 29.5911 79.0921 29.5867H79.0066C79.0066 29.5867 77.5921 29.5755 77.2043 29.5867C76.6243 29.6178 76.371 30.1755 76.1666 30.6711C76.0854 30.8633 76.0121 31.04 75.9166 31.1978C75.7632 31.4744 75.4632 31.6433 75.0943 31.6355C74.9866 31.6355 74.7477 31.57 74.6255 31.54C73.8599 31.3511 73.0721 31.1589 72.7488 30.3978C72.7188 30.2678 72.6688 29.9978 72.8599 29.7711C73.2677 29.2989 73.8066 28.6989 74.3599 28.2689C75.1288 28.1067 75.8977 27.5378 76.3199 26.8233C76.4088 26.7 76.4543 26.5544 76.501 26.4155C76.5699 26.2 76.6343 25.9967 76.831 25.87C76.9543 25.8078 77.0543 25.8278 77.081 25.9355C77.1543 26.3355 77.0043 26.7189 76.8543 27.0911C76.8208 27.1742 76.789 27.2579 76.7588 27.3422L76.7355 27.4033L76.801 27.4111C77.0121 27.43 77.231 27.4422 77.4499 27.4422C78.2388 27.4422 78.9877 27.3078 79.7143 27.1767C80.4332 27.0455 81.1788 26.9111 81.9477 26.9111C82.0288 26.9111 82.1132 26.9111 82.1977 26.9155C82.5399 26.9155 82.8699 26.9455 83.1932 26.9733C83.5088 27 83.8354 27.0311 84.1621 27.0311C84.2766 27.0311 84.3843 27.0311 84.4921 27.02C85.4766 26.9733 86.1921 26.5267 86.4066 25.82C86.6099 25.2167 86.5877 24.1755 86.341 22.7211C86.3299 22.6522 86.3221 22.6067 86.3221 22.5989V22.5722C86.3221 22.5178 86.3221 22.4611 86.3955 22.4255C86.4877 22.3755 86.5843 22.4255 86.6288 22.5444C87.0021 23.59 87.2177 24.7933 87.3332 25.62C87.4599 26.4233 87.7943 27.2378 88.3632 28.1067C89.0666 29.1567 90.2277 29.76 91.5454 29.76C91.8532 29.76 92.161 29.7022 92.4643 29.6633C92.6755 29.6367 92.7566 29.6478 92.8988 29.6478C94.5754 29.6478 96.0321 30.3744 97.1199 31.7478C97.1199 31.7478 97.1388 31.7744 97.1388 31.8122C97.1388 31.87 97.0543 31.9278 96.981 31.8967L96.8388 31.7855C95.8943 31.0522 94.9166 30.2944 93.691 30.1444C93.4624 30.105 93.2308 30.0856 92.9988 30.0867C92.6517 30.0927 92.3052 30.1183 91.961 30.1633C91.6232 30.2022 91.3077 30.2411 90.981 30.2411C90.601 30.2493 90.2232 30.1813 89.8699 30.0411C88.4588 29.5744 87.3066 27.9522 86.9366 26.9455C86.9231 26.9173 86.902 26.8934 86.8757 26.8765C86.8494 26.8597 86.8189 26.8505 86.7877 26.85C86.7488 26.85 86.7099 26.8611 86.6677 26.8889C86.5032 26.9922 86.4754 27.0455 86.4532 27.1455C86.4299 27.23 86.5677 27.9533 86.6299 28.2644C86.8143 29.0333 87.091 30.1944 88.0977 30.6244C88.221 30.6978 88.3477 30.7789 88.471 30.8589C88.9743 31.1811 89.4932 31.5167 90.0888 31.5167C90.231 31.5167 90.3732 31.4978 90.511 31.4589C90.8699 31.3811 91.2343 31.34 91.6032 31.34C92.7643 31.34 93.9443 31.7355 94.9366 32.4578C95.101 32.5544 95.2588 32.6844 95.4088 32.8122C95.6243 32.9922 95.8432 33.1767 96.1055 33.2733C96.2699 33.3389 96.4466 33.3733 96.6354 33.3733C97.0854 33.3733 97.1999 33.2389 97.5199 33.0811C97.6373 33.0235 97.7658 32.992 97.8966 32.9889C98.2577 32.9889 98.4577 33.2689 98.711 33.6267C98.8643 33.8422 99.0377 34.0844 99.2721 34.2955C99.5988 34.6144 100.052 34.6533 100.41 34.6533C100.607 34.6533 100.802 34.6378 100.994 34.6267C101.179 34.6155 101.402 34.6067 101.521 34.5955C101.637 34.58 101.702 34.5644 101.702 34.5644V34.5189L101.71 34.5333ZM63.5155 29.1722C63.451 29.2911 63.2932 29.36 63.0855 29.36C62.9131 29.3623 62.7435 29.3157 62.5966 29.2255C62.3277 29.0333 62.171 28.7144 62.1477 28.2955C62.1432 28.1989 62.1366 28.0989 62.2666 28.0033C62.3321 27.9644 62.371 27.9644 62.4477 27.9644C62.7043 27.9644 63.1166 28.13 63.3354 28.3955C63.351 28.4144 63.6932 28.8678 63.5166 29.1755L63.5155 29.1722ZM63.8855 23.2555C63.7888 23.3789 63.6432 23.4711 63.501 23.4022C63.3666 23.3555 63.2466 23.1822 63.1743 23.0522C63.0821 22.8867 63.0043 22.7444 62.7854 22.76H62.751C62.5588 22.7755 62.4132 22.8711 62.2588 22.99C62.1821 23.0522 61.8699 23.2833 61.7943 23.3478C61.3755 23.7022 60.9521 24.0667 60.8521 24.5622C60.8309 24.6507 60.8116 24.7396 60.7943 24.8289C60.7632 25.0011 60.7332 25.1811 60.5866 25.2733H60.5755C60.5554 25.2844 60.5328 25.2898 60.5099 25.2889C60.4436 25.2863 60.38 25.2621 60.3288 25.22C60.3023 25.2003 60.2807 25.1749 60.2655 25.1456C60.2503 25.1164 60.2419 25.0841 60.241 25.0511C60.1677 24.1978 60.4566 23.4289 61.0555 22.8833C61.4443 22.5644 61.7555 22.1644 62.0588 21.7755C62.2055 21.5867 62.3588 21.3911 62.5166 21.2111C62.6354 21.0922 62.8321 21.1922 63.1543 21.5444C63.2888 21.6911 63.7121 22.4111 63.9043 22.8833C63.9263 22.9422 63.9357 23.0051 63.9319 23.0679C63.928 23.1307 63.9111 23.1919 63.8821 23.2478L63.8855 23.2555ZM70.9466 13.3344C70.7855 13.4889 70.6154 13.6422 70.4466 13.8C69.8466 14.3455 69.2277 14.9111 68.821 15.5489C68.6288 15.81 68.4866 16.11 68.3477 16.4022C68.3321 16.4333 68.2977 16.4978 68.2321 16.4978C68.2152 16.497 68.1987 16.4928 68.1834 16.4856C68.1682 16.4783 68.1545 16.4681 68.1432 16.4555C68.0288 16.34 68.1243 15.5367 68.2743 15.1333C68.6055 14.2422 69.3543 13.3078 70.3355 12.5733C70.4443 12.5068 70.5691 12.4711 70.6966 12.47C70.881 12.47 71.0232 12.5544 71.081 12.7C71.2032 12.8967 71.1588 13.1267 70.9466 13.3344ZM30.891 30.2289C30.8566 30.171 30.8247 30.1117 30.7954 30.0511C30.6954 29.8633 30.6421 29.6633 30.5921 29.49C30.4921 29.1411 30.4077 28.8367 30.0266 28.89C29.4888 28.9678 28.9654 29.0022 28.3821 29.0022C28.3732 29.0022 28.1932 29.0022 28.1354 29.1289C28.0699 29.2755 28.2166 29.4133 28.3743 29.5555C28.4621 29.6367 28.5543 29.7211 28.6154 29.8133C28.7232 29.9711 28.8266 30.1978 28.9266 30.4167C29.0843 30.7667 29.2232 31.0667 29.381 31.1167C29.4533 31.137 29.5281 31.1471 29.6032 31.1467C29.9699 31.1467 30.4721 30.9511 30.8377 30.6667C31.041 30.4933 30.9766 30.3778 30.8843 30.2244L30.891 30.2289ZM4.60322 29.6833L4.57323 29.66C4.46211 29.5711 4.26211 29.5822 4.12656 29.6755C4.03434 29.74 3.93767 29.8022 3.84656 29.8644C3.54656 30.0633 3.23545 30.2667 2.90878 30.5433C2.78878 30.6433 2.72322 30.8322 2.71211 30.9778C2.701 31.0933 2.72322 31.1855 2.76989 31.2444C2.79656 31.2744 3.03545 31.5389 3.08545 31.5822C3.19011 31.6759 3.325 31.7287 3.46545 31.7311C3.57797 31.7284 3.68831 31.6995 3.78767 31.6467C4.36878 31.3555 4.96878 30.2789 4.99211 30.2167C5.05323 30.0444 4.85767 29.8867 4.60322 29.6833ZM2.68878 32.2355C2.56989 32.0667 2.17434 31.6011 1.951 31.6011C1.93211 31.6011 1.91211 31.6011 1.89767 31.6122C1.58989 31.7389 1.23211 32.1389 1.21322 32.3778C1.13545 33.4189 1.10545 33.53 0.821003 33.85C0.739891 33.9389 0.686558 34.1455 0.77878 34.2344C0.85878 34.3144 1.88211 34.6378 1.99656 34.6378H2.01989C2.11211 34.6067 2.18878 34.3722 2.39767 33.6533C2.50878 33.2644 2.63545 32.8267 2.77767 32.4311C2.78545 32.4044 2.78878 32.3655 2.69656 32.2355H2.68878Z" fill="white"/>
<path d="M34.0466 32.1667C34.4655 32.1355 34.9 32.1044 35.2077 31.7778C35.5966 31.2122 35.93 30.6444 36.2233 30.0444C36.4844 29.5055 36.4878 28.9789 36.2311 28.5678C35.4577 27.33 35.32 27.0033 35.0044 26.1622L34.9966 26.1389L34.9744 26.1311C34.883 26.103 34.7929 26.0707 34.7044 26.0344C34.5155 25.9622 34.3155 25.8811 34.09 25.8811H34.0589C33.7933 25.8889 33.6133 25.9733 33.54 26.12L33.5289 26.1422L34.9311 28.91C35.02 29.1255 35.1233 29.3444 35.07 29.6678C35.0155 29.99 34.3277 31.0744 34.12 31.2122C34.0849 31.2403 34.0425 31.2577 33.9977 31.2622C33.9822 31.2622 33.9089 31.2478 33.9544 31.0855C34.0855 30.6367 34.2511 29.5789 34.2044 29.2411C34.1544 28.8489 32.9789 26.9033 32.9289 26.8189L32.9055 26.7855C32.7244 26.4889 32.5366 26.1811 32.5522 25.8233C32.5522 25.6578 32.7055 25.5433 32.8166 25.5011C33.0211 25.4233 33.2166 25.3933 33.4244 25.3467C33.9244 25.2355 34.4389 25.1244 34.6244 24.8433C35.1855 23.99 35.5189 23.0989 35.7422 21.8644C35.7533 21.81 35.7922 21.7067 35.8689 21.7067C35.9155 21.7067 35.9611 21.7222 35.98 21.8289C36.0818 22.4126 36.0663 23.0107 35.9345 23.5883C35.8027 24.166 35.5571 24.7116 35.2122 25.1933C35.1638 25.274 35.1461 25.3695 35.1622 25.4622C35.1777 25.5622 35.2889 25.6433 35.2889 25.6433C35.5577 25.8278 36.5422 25.72 37.2566 25.3467C37.8022 25.3578 38.3144 25.2622 38.8133 25.17C38.9711 25.1389 39.1289 25.1122 39.2822 25.0855C39.3322 25.1122 39.3711 25.1589 39.3789 25.1933C38.96 25.6655 38.7055 26.1967 38.5755 26.8611C38.4563 26.9817 38.3333 27.0984 38.2066 27.2111C37.7489 27.63 37.2566 28.1 37.2333 28.6989C37.2333 28.6989 37.2189 28.9144 37.4533 28.9289C37.5255 28.9333 37.61 28.8955 37.6866 28.8644C37.7622 28.8261 37.8453 28.8048 37.93 28.8022C37.9658 28.8073 37.9987 28.8248 38.023 28.8516C38.0474 28.8783 38.0616 28.9127 38.0633 28.9489L37.5411 29.7133C37.3455 30.0322 37.43 30.3711 37.5066 30.7022C37.5644 30.8822 37.5378 31.0244 37.5877 31.1855C37.7178 31.5667 38.1833 31.7467 38.5522 31.7467C39.2322 31.7167 39.8522 31.4933 40.4511 31.2778C40.5589 31.24 40.6622 31.2011 40.7733 31.1633C41.4311 30.8789 42.3077 30.8211 43.35 30.99C44.1877 30.9355 44.8177 30.3822 45.4289 29.8444C45.69 29.8522 45.96 30.0055 46.2366 30.3055C47.1433 31.2778 48.2544 31.75 49.6344 31.75H49.7922L49.93 31.7389C50.0722 31.7055 50.1111 31.6355 50.1189 31.5467C50.13 31.44 50.0455 31.3322 49.8922 31.2589L49.1189 30.8478C48.5 30.4555 47.8277 29.9822 47.6433 29.3589C47.4433 28.6944 47.07 28.0189 46.79 27.5689C46.7327 27.4772 46.6723 27.3875 46.6089 27.3C46.5011 27.1422 46.3866 26.98 46.3089 26.8111C47.1511 27.1111 47.6233 27.7333 48.1933 28.7722C48.6155 29.5444 49.7155 30.3744 50.7566 30.3744C50.8955 30.3744 51.0255 30.3589 51.1566 30.3322C51.2677 30.31 51.3411 30.2367 51.3566 30.14C51.3677 30.0555 51.3566 29.9744 51.2644 29.9244L50.6333 29.61C49.8844 29.1711 49.4533 28.4489 49.0344 27.7455C48.8689 27.4678 48.7011 27.1844 48.5155 26.9267C48.3966 26.7489 48.1889 26.5655 48.0089 26.4044C47.8511 26.2622 47.7011 26.1267 47.6733 26.0544C46.99 24.1855 46.2444 21.9911 46.0633 19.55C46.0366 19.1778 45.7744 18.3589 45.4633 17.8278C44.4911 16.2444 42.1689 13.5344 42.0422 13.4C41.9623 13.3159 41.8804 13.2336 41.7966 13.1533L41.7344 13.0922L37.5522 9.61777C36.7222 9.03332 36.4689 8.92888 35.8655 8.71443C35.4426 8.5698 34.9981 8.49841 34.5511 8.50332C33.9589 8.50332 33.3666 8.61776 32.8822 8.82554C32.5489 9.00332 32.2255 9.20999 31.91 9.40999C31.3766 9.75221 30.8211 10.1055 30.2222 10.3055C29.7533 10.5167 29.25 10.6711 28.7622 10.8211C27.8122 11.1122 26.8322 11.4167 26.0555 12.1322C25.8289 12.3389 25.6444 12.5122 25.49 12.6622C24.7722 13.3389 24.6989 13.4111 24.1111 13.4111C22.75 13.4111 21.7855 13.7455 20.7778 14.5644C19.9822 15.2867 19.1944 15.9644 18.2755 16.2833C17.8644 16.4255 17.4066 16.4789 16.9222 16.5255C16.2266 16.5867 16.1189 16.5944 15.4622 16.7522C14.47 16.9789 13.4178 17.7967 12.5289 18.4889C12.2366 18.7155 11.8489 19.0155 11.6644 19.1355C11.5677 19.1967 11.4533 19.2689 11.36 19.3244C10.2533 19.9689 9.21108 20.58 7.87331 20.58H7.77331C6.77442 20.5078 5.86775 19.8189 5.56331 18.9078C5.28331 17.8822 5.58331 16.8289 6.39331 16.0211C6.77775 15.6367 7.21553 15.2644 7.64331 14.9033C8.32775 14.3222 8.97331 13.7722 9.42331 13.17C9.94553 12.47 9.88775 11.29 9.29997 10.6478C8.71553 10.0055 7.40886 9.68665 6.91664 9.56776L6.8322 9.54777C6.7822 9.53665 6.69775 9.52554 6.65108 9.51443C6.33997 9.45221 6.03997 9.40999 5.73664 9.33665C4.95997 9.12554 4.35664 8.52221 3.66886 8.15332C3.40331 8.55999 3.31442 9.00221 3.34997 9.49443C3.47997 10.5322 4.34553 11.6089 5.30553 12.0467C5.34775 12.0622 5.38664 12.0811 5.42886 12.0933C5.7322 12.2233 6.05108 12.2433 6.35108 12.2433H6.73997C6.92442 12.2433 7.14775 12.2433 7.34664 12.2933C7.45234 12.3237 7.5469 12.3842 7.61873 12.4675C7.69057 12.5508 7.73656 12.6532 7.75108 12.7622C7.76664 12.9 7.70442 13.0078 7.52886 13.1422L7.03997 13.5455C6.21331 14.2267 5.35997 14.9344 4.66775 15.79C3.73775 16.7944 3.69553 18.5389 4.12997 19.6689C4.68331 21.1578 6.21331 21.9911 7.48553 22.1522C7.71219 22.1867 7.93886 22.2067 8.17775 22.2067C8.92664 22.2067 9.63775 22.0255 10.33 21.8522C10.3566 21.8444 10.3766 21.8444 10.3955 21.8444C10.4266 21.8444 10.4877 21.8444 10.4989 22.0022C10.5189 22.31 10.5377 22.66 10.5533 22.9978C10.5755 23.5478 10.6033 24.0667 10.6422 24.2867C10.7333 24.7744 10.9755 25.37 11.1377 25.7622C11.2066 25.9278 11.26 26.0578 11.2755 26.1233C11.3378 26.3455 11.28 26.5889 11.13 26.7267C10.6077 27.2078 9.54108 27.5878 9.34553 27.6155C9.03108 27.6533 8.69664 27.6722 8.44997 27.6844C8.32775 27.6911 8.22775 27.6955 8.17775 27.7033C8.06747 27.7145 7.96435 27.7632 7.88553 27.8411C7.73553 27.9878 7.57442 28.4067 7.38219 28.8911C7.26664 29.1833 7.15108 29.4867 7.03219 29.7367C6.69775 30.29 6.13997 30.6167 5.59886 30.9278C5.46331 31.0055 5.32886 31.0855 5.19886 31.1667L5.18331 31.1822C4.96108 31.5355 4.73664 31.87 4.44886 32.1233C4.22664 32.3311 3.94108 32.3778 3.66442 32.4122H3.64553L3.63442 32.4278C3.21108 32.9122 3.07664 33.5533 2.9422 34.18C2.92331 34.2767 2.89997 34.3722 2.87997 34.4644L2.86108 34.5533H2.91553C3.13775 34.58 3.35997 34.6267 3.59553 34.68C3.90664 34.7489 4.22553 34.8189 4.54108 34.8189C4.84108 34.8189 5.09442 34.7567 5.32553 34.63C5.72886 34.4455 5.94442 34.0722 6.15553 33.7155C6.29442 33.4811 6.43664 33.2344 6.62886 33.0467C6.68212 32.9856 6.74841 32.9374 6.82285 32.9054C6.89728 32.8735 6.97794 32.8587 7.05886 32.8622C7.21664 32.8622 7.38997 32.9078 7.55442 32.9544C7.70886 32.9967 7.86553 33.0389 8.01553 33.0467C8.76219 33.0889 9.46886 32.62 9.81108 32.3467C9.96108 32.2278 10.1111 32.0855 10.2566 31.9511C10.4833 31.74 10.7144 31.52 10.9644 31.3667C11.2678 31.22 11.6333 31.1511 12.0866 31.1511C12.6477 31.1511 13.2433 31.2622 13.7166 31.3511C13.9688 31.4166 14.2283 31.4502 14.4889 31.4511C14.9142 31.4579 15.3341 31.3545 15.7077 31.1511C16.1233 30.9178 16.5411 30.6978 16.8766 30.5211C17.0722 30.4167 17.2455 30.3289 17.38 30.2522C17.9755 29.9255 18.4833 29.0178 18.6711 28.6411C18.8489 28.2911 19.1489 27.5344 19.1522 27.5267L19.1677 27.4922L18.4711 26.9611L18.4444 27.0078C18.4444 27.0078 17.9833 27.7644 17.6877 28.1144C16.4611 29.7833 14.4655 29.9978 12.8633 29.9978C12.7522 29.9944 12.6411 29.99 12.5322 29.99C10.5489 29.99 8.94997 30.6555 7.78108 31.97C7.72775 32.0311 7.63108 32.0433 7.5922 31.9889C7.56997 31.9589 7.56219 31.9089 7.57775 31.8467C7.60038 31.7294 7.64485 31.6175 7.70886 31.5167C8.94997 29.7522 11.0722 29.4911 12.7822 29.46C14.0466 29.3755 14.9655 29.1567 15.7655 28.7489C16.7922 28.2267 17.5489 27.0733 17.8489 26.1578C18.0444 25.5578 18.1411 24.9167 18.2333 24.2978C18.3066 23.8055 18.3833 23.2978 18.5055 22.8289C18.5167 22.7998 18.5363 22.7747 18.5618 22.7568C18.5874 22.739 18.6177 22.7293 18.6489 22.7289C18.6633 22.7289 18.6755 22.7289 18.6978 22.74C18.7644 22.7522 18.8866 22.7978 18.8866 22.8944C18.7133 23.8633 18.4789 25.1933 18.9211 26.3C19.1289 26.7378 19.5666 26.9533 20.2666 26.9533C20.6889 26.9533 21.1511 26.88 21.6 26.8111C21.9466 26.7578 22.2733 26.7033 22.5533 26.6922C22.6733 26.6811 22.7922 26.6767 22.9155 26.6767C23.4722 26.6767 24.0111 26.7844 24.53 26.8878C24.9833 26.98 25.4522 27.0722 25.9322 27.0955C26.0166 27.1 26.11 27.1067 26.2055 27.1155C26.3711 27.13 26.5433 27.1422 26.7211 27.1422C27.1277 27.1422 27.4166 27.0611 27.6244 26.8922C27.77 26.7733 27.72 26.5922 27.6544 26.3655L27.6433 26.3233C27.6322 26.2844 27.6211 26.2422 27.6044 26.1967C27.5122 25.8967 27.3711 25.4433 27.6044 25.2311C27.6425 25.2035 27.6885 25.1887 27.7355 25.1889C27.7733 25.1889 27.8277 25.2 27.8433 25.2622L27.92 25.5233C28.0233 25.8855 28.1311 26.2622 28.3622 26.5844C28.8511 27.2067 29.6033 27.7989 30.5411 28.2878C31.1455 28.7022 31.8711 29.4022 31.93 30.3789C31.93 30.8211 31.4989 31.1278 31.18 31.32C30.6755 31.57 29.8144 31.8511 29.4077 31.8511C29.3538 31.8544 29.2998 31.8453 29.25 31.8244C28.6655 31.5133 28.3655 31.0089 28.0466 30.4744C27.8813 30.1805 27.6925 29.9003 27.4822 29.6367C27.1777 29.2989 26.7933 29.1678 26.2744 29.21C25.7744 29.2489 25.3133 29.3444 24.7677 29.46C24.7147 29.4696 24.6648 29.4918 24.622 29.5246C24.5793 29.5575 24.5451 29.6001 24.5222 29.6489C24.498 29.7071 24.4881 29.7702 24.4933 29.8331C24.4985 29.8959 24.5187 29.9566 24.5522 30.01C24.8366 30.5167 25.11 30.9778 25.4022 31.4655L25.5333 31.6855C25.6022 31.8044 25.7522 31.82 25.8744 31.82C25.9411 31.82 26.0133 31.8167 26.09 31.8089C26.1711 31.8044 26.2555 31.7978 26.34 31.7978C26.5933 31.7978 26.7555 31.8589 26.8589 31.9855C26.9477 32.1189 27.0244 32.2622 27.1011 32.4C27.2933 32.7422 27.49 33.1 27.82 33.3533C28.12 33.62 28.5533 33.7689 29.0077 33.7689C29.2077 33.7689 29.4 33.7378 29.5844 33.6844C30.8955 33.2733 32.1711 32.8511 33.3855 32.2011C33.3855 32.2011 33.8666 32.1933 34.0511 32.1778L34.0466 32.1667ZM36.2266 17.4667C36.2044 17.5478 36.1533 17.6011 36.0955 17.6011C36.0733 17.6011 36.0111 17.59 35.9922 17.4855C35.7733 16.3678 35.6422 15.8178 35.3844 15.3022C35.3044 15.1378 35.2 14.9989 35.1122 14.8755C34.9233 14.6189 34.7622 14.3989 34.9433 14.1C34.9966 14.0111 35.1311 13.9533 35.2766 13.9533C35.35 13.9533 35.4155 13.9689 35.4733 13.9955C35.6889 14.1 35.9 14.3611 36.1155 14.7955C36.6533 15.8989 36.2266 17.4555 36.2222 17.4711L36.2266 17.4667ZM43.2577 28.6067C43.2577 28.6067 43.2222 28.9222 43.0766 29.06C42.9266 29.1944 42.3966 29.2678 42.1155 29.26C41.8355 29.2489 41.7389 29.21 41.6822 29.1255C41.6155 29.0289 41.7233 28.8411 41.7233 28.8411C41.7577 28.7722 42.0844 28.0911 42.7455 27.9111C42.7455 27.9111 42.9566 27.8333 43.1611 27.9333C43.3644 28.0333 43.2689 28.5411 43.2611 28.6111L43.2577 28.6067ZM45.1711 24.2089C45.1521 24.3644 45.1055 24.5153 45.0333 24.6544C44.9989 24.7167 44.9411 24.8511 44.7489 24.8544C44.5378 24.8544 44.5522 24.6089 44.5522 24.5744C44.5522 24.5744 44.5255 23.8855 44.3944 23.5978C44.2522 23.2822 43.5611 22.3944 43.1611 22.4333C43.0611 22.4411 42.8 22.5989 42.6077 22.8478C42.3733 23.1522 42.3733 23.19 42.3 23.2367C42.2266 23.2822 42.1344 23.2589 42.1044 23.0789C42.0733 22.8978 42.0377 22.7522 42.1233 22.41C42.2077 22.0678 42.2922 21.9911 42.3922 21.7455C42.3922 21.7455 42.6 21.2644 42.6766 21.1455C42.8922 20.8189 43.1766 20.8422 43.1766 20.8422C43.2533 20.8455 43.4989 20.8144 43.7655 21.1455C44.0722 21.53 44.0066 21.4955 44.0911 21.63C44.1755 21.7633 44.2689 21.9067 44.5222 22.1833C44.7755 22.4611 45.0555 22.9978 45.1333 23.3322C45.21 23.6667 45.2066 23.9511 45.1633 24.21L45.1711 24.2089Z" fill="white"/>
</svg>
